<svg width="193" height="43" viewBox="0 0 193 43" fill="none" xmlns="http://www.w3.org/2000/svg">
<g clip-path="url(#clip0_863_1600)">
<path d="M0 1.90002H8.9V26.3H23.9V33.4H0V1.90002Z" fill="#455364"/>
<path d="M51.7 23.4H34C34.4 24.7 35.1 25.6 36.1 26.3C37.1 27 38.4 27.3 40 27.3C41.2 27.3 42.2 27.1 43 26.8C43.8 26.5 44.7 25.9 45.6 25.2L50.1 29.9C47.7 32.5 44.3 33.9 39.7 33.9C36.8 33.9 34.3 33.4 32.2 32.3C30 31.2 28.4 29.7 27.2 27.8C26 25.9 25.4 23.7 25.4 21.3C25.4 18.9 26 16.7 27.1 14.8C28.3 12.9 29.9 11.4 31.9 10.3C33.9 9.20001 36.2 8.70001 38.8 8.70001C41.2 8.70001 43.4 9.20001 45.4 10.2C47.4 11.2 48.9 12.7 50.1 14.6C51.3 16.5 51.8 18.8 51.8 21.4C51.9 21.3 51.8 22 51.7 23.4ZM35.6 15.8C34.7 16.6 34.2 17.6 33.9 18.9H43.9C43.7 17.6 43.1 16.6 42.2 15.8C41.3 15.1 40.2 14.7 38.9 14.7C37.6 14.7 36.5 15 35.6 15.8Z" fill="#455364"/>
<path d="M82.1 8.99998V28.9C82.1 33.4 80.9 36.8 78.4 39.1C75.9 41.4 72.4 42.5 67.8 42.5C65.4 42.5 63.1 42.2 61 41.7C58.9 41.2 57.1 40.4 55.6 39.3L58.7 33.3C59.7 34.1 60.9 34.7 62.5 35.2C64 35.7 65.5 35.9 67 35.9C69.3 35.9 70.9 35.4 72 34.4C73 33.4 73.6 31.9 73.6 30V29.2C71.9 31.1 69.5 32.1 66.4 32.1C64.2 32.1 62.2 31.6 60.4 30.6C58.6 29.6 57.1 28.2 56 26.5C54.9 24.7 54.4 22.7 54.4 20.3C54.4 18 54.9 15.9 56 14.2C57.1 12.4 58.5 11 60.4 10.1C62.2 9.09998 64.2 8.59998 66.4 8.59998C69.9 8.59998 72.4 9.69998 74 12V8.99998H82.1ZM72.1 23.9C73.1 23 73.6 21.8 73.6 20.3C73.6 18.8 73.1 17.6 72.1 16.7C71.1 15.8 69.8 15.3 68.3 15.3C66.7 15.3 65.5 15.8 64.5 16.7C63.5 17.6 63 18.8 63 20.3C63 21.8 63.5 23 64.5 23.9C65.5 24.8 66.8 25.3 68.3 25.3C69.8 25.3 71.1 24.9 72.1 23.9Z" fill="#455364"/>
<path d="M107.2 11.4C109.3 13.2 110.4 16.1 110.4 19.9V33.4H102.4V30.2C101.2 32.6 98.8 33.8 95.2 33.8C93.3 33.8 91.7 33.5 90.3 32.8C88.9 32.1 87.9 31.2 87.2 30.1C86.5 29 86.1 27.7 86.1 26.3C86.1 24 87 22.2 88.8 20.9C90.6 19.6 93.3 19 97 19H101.9C101.7 16.4 100 15.1 96.7 15.1C95.5 15.1 94.3 15.3 93.1 15.7C91.9 16.1 90.9 16.6 90 17.3L87.1 11.5C88.5 10.6 90.1 9.89997 92 9.39997C94.1 8.79997 96 8.59998 98 8.59998C102 8.59998 105.1 9.49997 107.2 11.4ZM100.3 27.7C101.1 27.2 101.6 26.5 101.9 25.6V23.5H98.2C95.7 23.5 94.5 24.3 94.5 26C94.5 26.8 94.8 27.4 95.4 27.8C96 28.2 96.7 28.5 97.7 28.5C98.7 28.5 99.5 28.2 100.3 27.7Z" fill="#455364"/>
<path d="M115.8 0H124.3V33.4H115.8V0Z" fill="#455364"/>
<path d="M149.7 11.3C151.5 12.3 152.9 13.7 153.9 15.5C154.9 17.3 155.4 19.4 155.4 21.7C155.4 24 154.9 26.1 153.9 27.9C152.9 29.7 151.5 31.1 149.7 32.1C147.9 33.1 145.9 33.6 143.8 33.6C141.7 33.6 139.9 33.1 138.2 32.1C136.5 31.1 135.2 29.8 134.3 28V42.1H132V9.90001H134.2V15.4C135.1 13.6 136.4 12.2 138.1 11.2C139.8 10.2 141.7 9.70001 143.8 9.70001C145.9 9.70001 147.9 10.2 149.7 11.3ZM148.5 30.3C149.9 29.5 151.1 28.3 151.9 26.8C152.7 25.3 153.1 23.6 153.1 21.7C153.1 19.8 152.7 18.1 151.9 16.6C151.1 15.1 149.9 13.9 148.5 13.1C147.1 12.3 145.4 11.8 143.6 11.8C141.8 11.8 140.2 12.2 138.8 13.1C137.4 13.9 136.2 15.1 135.4 16.6C134.6 18.1 134.2 19.8 134.2 21.7C134.2 23.6 134.6 25.3 135.4 26.8C136.2 28.3 137.3 29.5 138.8 30.3C140.2 31.1 141.8 31.6 143.6 31.6C145.4 31.6 147 31.1 148.5 30.3Z" fill="#B3B38C"/>
<path d="M162.3 0H164.6V33.4H162.3V0Z" fill="#B3B38C"/>
<path d="M177.3 32C175.5 31 174.1 29.6 173.1 27.7C172.1 25.9 171.6 23.8 171.6 21.6C171.6 19.3 172.1 17.2 173.1 15.4C174.1 13.6 175.5 12.2 177.3 11.2C179.1 10.2 181.1 9.70001 183.4 9.70001C185.3 9.70001 187 10.1 188.6 10.8C190.1 11.5 191.4 12.6 192.4 14L190.7 15.2C189.9 14 188.8 13.2 187.6 12.6C186.4 12 185 11.7 183.5 11.7C181.7 11.7 180 12.1 178.6 12.9C177.1 13.7 176 14.9 175.2 16.4C174.4 17.9 174 19.6 174 21.6C174 23.6 174.4 25.3 175.2 26.8C176 28.3 177.2 29.5 178.6 30.3C180 31.1 181.7 31.5 183.5 31.5C185 31.5 186.4 31.2 187.6 30.6C188.8 30 189.9 29.1 190.7 28L192.4 29.2C191.4 30.6 190.2 31.7 188.6 32.4C187.1 33.1 185.3 33.5 183.4 33.5C181.1 33.6 179.1 33.1 177.3 32Z" fill="#B3B38C"/>
</g>
<defs>
<clipPath id="clip0_863_1600">
<rect width="192.3" height="42.5" fill="white"/>
</clipPath>
</defs>
</svg>
